{
  "accessors": [
    {
      "bufferView": 2,
      "componentType": 5126,
      "count": 65532,
      "max": [
        38.7651252746582,
        -0.8343870043754578,
        38.7651252746582
      ],
      "min": [
        -38.7651252746582,
        -14.635164260864258,
        -38.7651252746582
      ],
      "type": "VEC3"
    },
    {
      "bufferView": 2,
      "byteOffset": 786384,
      "componentType": 5126,
      "count": 65532,
      "max": [
        1.0,
        1.0,
        1.0
      ],
      "min": [
        -1.0,
        -1.0,
        -1.0
      ],
      "type": "VEC3"
    },
    {
      "bufferView": 1,
      "componentType": 5126,
      "count": 65532,
      "max": [
        0.9996269941329956,
        0.9685059785842896
      ],
      "min": [
        0.00024399999529123306,
        0.00025400001322850585
      ],
      "type": "VEC2"
    },
    {
      "bufferView": 0,
      "componentType": 5125,
      "count": 274932,
      "type": "SCALAR"
    },
    {
      "bufferView": 2,
      "byteOffset": 1572768,
      "componentType": 5126,
      "count": 65532,
      "max": [
        35.54288864135742,
        -7.207033157348633,
        29.20492935180664
      ],
      "min": [
        -22.553483963012695,
        -30.290407180786133,
        -24.704530715942383
      ],
      "type": "VEC3"
    },
    {
      "bufferView": 2,
      "byteOffset": 2359152,
      "componentType": 5126,
      "count": 65532,
      "max": [
        0.9999577403068542,
        0.9999288320541382,
        0.9999966025352478
      ],
      "min": [
        -0.9998873472213745,
        -1.0,
        -0.9999762773513794
      ],
      "type": "VEC3"
    },
    {
      "bufferView": 1,
      "byteOffset": 524256,
      "componentType": 5126,
      "count": 65532,
      "max": [
        0.9997529983520508,
        0.9567869901657104
      ],
      "min": [
        0.00024399999529123306,
        0.0002579999854788184
      ],
      "type": "VEC2"
    },
    {
      "bufferView": 0,
      "byteOffset": 1099728,
      "componentType": 5125,
      "count": 235674,
      "type": "SCALAR"
    },
    {
      "bufferView": 2,
      "byteOffset": 3145536,
      "componentType": 5126,
      "count": 65532,
      "max": [
        34.388736724853516,
        -7.207033157348633,
        31.076242446899414
      ],
      "min": [
        -24.180776596069336,
        -33.77996826171875,
        -24.631526947021484
      ],
      "type": "VEC3"
    },
    {
      "bufferView": 2,
      "byteOffset": 3931920,
      "componentType": 5126,
      "count": 65532,
      "max": [
        0.9999948143959045,
        0.9999157786369324,
        0.9999772310256958
      ],
      "min": [
        -0.9996669292449951,
        -0.999998152256012,
        -0.999968409538269
      ],
      "type": "VEC3"
    },
    {
      "bufferView": 1,
      "byteOffset": 1048512,
      "componentType": 5126,
      "count": 65532,
      "max": [
        0.9997389912605286,
        0.9567869901657104
      ],
      "min": [
        0.00024399999529123306,
        0.00025499999173916876
      ],
      "type": "VEC2"
    },
    {
      "bufferView": 0,
      "byteOffset": 2042424,
      "componentType": 5125,
      "count": 238335,
      "type": "SCALAR"
    },
    {
      "bufferView": 2,
      "byteOffset": 4718304,
      "componentType": 5126,
      "count": 65532,
      "max": [
        14.452357292175293,
        -7.207033157348633,
        31.17958641052246
      ],
      "min": [
        -16.320192337036133,
        -22.412527084350586,
        -22.502674102783203
      ],
      "type": "VEC3"
    },
    {
      "bufferView": 2,
      "byteOffset": 5504688,
      "componentType": 5126,
      "count": 65532,
      "max": [
        0.9999984502792358,
        0.9999960660934448,
        0.9999798536300659
      ],
      "min": [
        -0.9999779462814331,
        -0.9999964237213135,
        -0.9997546672821045
      ],
      "type": "VEC3"
    },
    {
      "bufferView": 1,
      "byteOffset": 1572768,
      "componentType": 5126,
      "count": 65532,
      "max": [
        0.9996770024299622,
        0.954833984375
      ],
      "min": [
        0.00024399999529123306,
        0.009138000197708607
      ],
      "type": "VEC2"
    },
    {
      "bufferView": 0,
      "byteOffset": 2995764,
      "componentType": 5125,
      "count": 272982,
      "type": "SCALAR"
    },
    {
      "bufferView": 2,
      "byteOffset": 6291072,
      "componentType": 5126,
      "count": 65532,
      "max": [
        34.36436080932617,
        -7.207033157348633,
        30.816619873046875
      ],
      "min": [
        -18.356502532958984,
        -34.106300354003906,
        -25.653261184692383
      ],
      "type": "VEC3"
    },
    {
      "bufferView": 2,
      "byteOffset": 7077456,
      "componentType": 5126,
      "count": 65532,
      "max": [
        0.999986469745636,
        0.9996544122695923,
        0.9999384880065918
      ],
      "min": [
        -0.9999951124191284,
        -0.9999738931655884,
        -0.9999935030937195
      ],
      "type": "VEC3"
    },
    {
      "bufferView": 1,
      "byteOffset": 2097024,
      "componentType": 5126,
      "count": 65532,
      "max": [
        0.9997490048408508,
        0.955810010433197
      ],
      "min": [
        0.00024399999529123306,
        0.00026199998683296144
      ],
      "type": "VEC2"
    },
    {
      "bufferView": 0,
      "byteOffset": 4087692,
      "componentType": 5125,
      "count": 203559,
      "type": "SCALAR"
    },
    {
      "bufferView": 2,
      "byteOffset": 7863840,
      "componentType": 5126,
      "count": 65532,
      "max": [
        21.638702392578125,
        -7.207033157348633,
        3.641913890838623
      ],
      "min": [
        2.436950922012329,
        -31.54324722290039,
        -25.238969802856445
      ],
      "type": "VEC3"
    },
    {
      "bufferView": 2,
      "byteOffset": 8650224,
      "componentType": 5126,
      "count": 65532,
      "max": [
        0.9999685287475586,
        0.9998846054077148,
        0.9999484419822693
      ],
      "min": [
        -0.9999836087226868,
        -0.999992311000824,
        -0.999981164932251
      ],
      "type": "VEC3"
    },
    {
      "bufferView": 1,
      "byteOffset": 2621280,
      "componentType": 5126,
      "count": 65532,
      "max": [
        0.9996770024299622,
        0.9577640295028687
      ],
      "min": [
        0.00024399999529123306,
        0.0002469999890308827
      ],
      "type": "VEC2"
    },
    {
      "bufferView": 0,
      "byteOffset": 4901928,
      "componentType": 5125,
      "count": 229191,
      "type": "SCALAR"
    },
    {
      "bufferView": 2,
      "byteOffset": 9436608,
      "componentType": 5126,
      "count": 65533,
      "max": [
        18.284032821655273,
        -7.207033157348633,
        5.591952800750732
      ],
      "min": [
        -9.295242309570313,
        -29.74542236328125,
        -36.71843338012695
      ],
      "type": "VEC3"
    },
    {
      "bufferView": 2,
      "byteOffset": 10223004,
      "componentType": 5126,
      "count": 65533,
      "max": [
        0.999975860118866,
        0.9991613030433655,
        0.9999858140945435
      ],
      "min": [
        -0.9999995231628418,
        -0.9999996423721313,
        -0.9999767541885376
      ],
      "type": "VEC3"
    },
    {
      "bufferView": 1,
      "byteOffset": 3145536,
      "componentType": 5126,
      "count": 65533,
      "max": [
        0.9997400045394897,
        0.954833984375
      ],
      "min": [
        0.00024399999529123306,
        0.0003100000030826777
      ],
      "type": "VEC2"
    },
    {
      "bufferView": 0,
      "byteOffset": 5818692,
      "componentType": 5125,
      "count": 228609,
      "type": "SCALAR"
    },
    {
      "bufferView": 2,
      "byteOffset": 11009400,
      "componentType": 5126,
      "count": 65532,
      "max": [
        10.292789459228516,
        -7.207033157348633,
        22.556072235107422
      ],
      "min": [
        -19.69260597229004,
        -25.03963851928711,
        -25.320886611938477
      ],
      "type": "VEC3"
    },
    {
      "bufferView": 2,
      "byteOffset": 11795784,
      "componentType": 5126,
      "count": 65532,
      "max": [
        0.9998952746391296,
        0.9998559951782227,
        0.9998911619186401
      ],
      "min": [
        -0.9999679923057556,
        -0.9999978542327881,
        -0.999819815158844
      ],
      "type": "VEC3"
    },
    {
      "bufferView": 1,
      "byteOffset": 3669800,
      "componentType": 5126,
      "count": 65532,
      "max": [
        0.9996740221977234,
        0.954833984375
      ],
      "min": [
        0.00024399999529123306,
        0.0005639999872073531
      ],
      "type": "VEC2"
    },
    {
      "bufferView": 0,
      "byteOffset": 6733128,
      "componentType": 5125,
      "count": 248268,
      "type": "SCALAR"
    },
    {
      "bufferView": 2,
      "byteOffset": 12582168,
      "componentType": 5126,
      "count": 65532,
      "max": [
        4.214384078979492,
        -7.207033157348633,
        24.206541061401367
      ],
      "min": [
        -12.053983688354492,
        -20.082305908203125,
        -22.3446102142334
      ],
      "type": "VEC3"
    },
    {
      "bufferView": 2,
      "byteOffset": 13368552,
      "componentType": 5126,
      "count": 65532,
      "max": [
        0.9995964169502258,
        0.9984949827194214,
        0.9998911619186401
      ],
      "min": [
        -0.9997698664665222,
        -0.9999997019767761,
        -0.9999436140060425
      ],
      "type": "VEC3"
    },
    {
      "bufferView": 1,
      "byteOffset": 4194056,
      "componentType": 5126,
      "count": 65532,
      "max": [
        0.999750018119812,
        0.9538570046424866
      ],
      "min": [
        0.00024399999529123306,
        0.0002629999944474548
      ],
      "type": "VEC2"
    },
    {
      "bufferView": 0,
      "byteOffset": 7726200,
      "componentType": 5125,
      "count": 248964,
      "type": "SCALAR"
    },
    {
      "bufferView": 2,
      "byteOffset": 14154936,
      "componentType": 5126,
      "count": 65532,
      "max": [
        0.983165979385376,
        -9.294315338134766,
        22.815086364746094
      ],
      "min": [
        -17.065570831298828,
        -21.89264488220215,
        -9.946396827697754
      ],
      "type": "VEC3"
    },
    {
      "bufferView": 2,
      "byteOffset": 14941320,
      "componentType": 5126,
      "count": 65532,
      "max": [
        0.9997717142105103,
        0.9977694153785706,
        0.999931275844574
      ],
      "min": [
        -0.9999721050262451,
        -0.9999985098838806,
        -0.9999877214431763
      ],
      "type": "VEC3"
    },
    {
      "bufferView": 1,
      "byteOffset": 4718312,
      "componentType": 5126,
      "count": 65532,
      "max": [
        0.9996110200881958,
        0.954833984375
      ],
      "min": [
        0.00024399999529123306,
        0.0006440000142902136
      ],
      "type": "VEC2"
    },
    {
      "bufferView": 0,
      "byteOffset": 8722056,
      "componentType": 5125,
      "count": 231213,
      "type": "SCALAR"
    },
    {
      "bufferView": 2,
      "byteOffset": 15727704,
      "componentType": 5126,
      "count": 65532,
      "max": [
        -1.8348679542541504,
        -7.867558002471924,
        23.63724708557129
      ],
      "min": [
        -18.071659088134766,
        -19.41397476196289,
        -18.288267135620117
      ],
      "type": "VEC3"
    },
    {
      "bufferView": 2,
      "byteOffset": 16514088,
      "componentType": 5126,
      "count": 65532,
      "max": [
        0.9999081492424011,
        0.9972760677337646,
        0.9997587203979492
      ],
      "min": [
        -0.9999980330467224,
        -0.9999996423721313,
        -0.9999575018882751
      ],
      "type": "VEC3"
    },
    {
      "bufferView": 1,
      "byteOffset": 5242568,
      "componentType": 5126,
      "count": 65532,
      "max": [
        0.9997339844703674,
        0.954833984375
      ],
      "min": [
        0.00024399999529123306,
        0.00037900000461377203
      ],
      "type": "VEC2"
    },
    {
      "bufferView": 0,
      "byteOffset": 9646908,
      "componentType": 5125,
      "count": 239565,
      "type": "SCALAR"
    },
    {
      "bufferView": 2,
      "byteOffset": 17300472,
      "componentType": 5126,
      "count": 65532,
      "max": [
        4.586088180541992,
        -7.207033157348633,
        31.160053253173828
      ],
      "min": [
        -36.75431823730469,
        -19.416933059692383,
        -21.736608505249023
      ],
      "type": "VEC3"
    },
    {
      "bufferView": 2,
      "byteOffset": 18086856,
      "componentType": 5126,
      "count": 65532,
      "max": [
        0.9992054104804993,
        0.9981973171234131,
        0.9999798536300659
      ],
      "min": [
        -0.9999951720237732,
        -0.9999969005584717,
        -0.9997790455818176
      ],
      "type": "VEC3"
    },
    {
      "bufferView": 1,
      "byteOffset": 5766824,
      "componentType": 5126,
      "count": 65532,
      "max": [
        0.9997209906578064,
        0.954833984375
      ],
      "min": [
        0.00024399999529123306,
        0.00024900000425986946
      ],
      "type": "VEC2"
    },
    {
      "bufferView": 0,
      "byteOffset": 10605168,
      "componentType": 5125,
      "count": 238197,
      "type": "SCALAR"
    },
    {
      "bufferView": 2,
      "byteOffset": 18873240,
      "componentType": 5126,
      "count": 65532,
      "max": [
        11.633386611938477,
        -7.207033157348633,
        30.70791244506836
      ],
      "min": [
        -17.890987396240234,
        -19.703035354614258,
        5.680787086486816
      ],
      "type": "VEC3"
    },
    {
      "bufferView": 2,
      "byteOffset": 19659624,
      "componentType": 5126,
      "count": 65532,
      "max": [
        0.9999818205833435,
        0.9634985327720642,
        0.9999862909317017
      ],
      "min": [
        -0.9999808073043823,
        -0.9999967813491821,
        -0.9999352097511292
      ],
      "type": "VEC3"
    },
    {
      "bufferView": 1,
      "byteOffset": 6291080,
      "componentType": 5126,
      "count": 65532,
      "max": [
        0.9997270107269287,
        0.9528809785842896
      ],
      "min": [
        0.00024399999529123306,
        0.0002500000118743628
      ],
      "type": "VEC2"
    },
    {
      "bufferView": 0,
      "byteOffset": 11557956,
      "componentType": 5125,
      "count": 208245,
      "type": "SCALAR"
    },
    {
      "bufferView": 2,
      "byteOffset": 20446008,
      "componentType": 5126,
      "count": 65532,
      "max": [
        21.349428176879883,
        -7.207033157348633,
        30.606454849243164
      ],
      "min": [
        -23.615333557128906,
        -36.19886016845703,
        -35.43962860107422
      ],
      "type": "VEC3"
    },
    {
      "bufferView": 2,
      "byteOffset": 21232392,
      "componentType": 5126,
      "count": 65532,
      "max": [
        0.9998986124992371,
        0.999967634677887,
        0.9999962449073792
      ],
      "min": [
        -0.9999968409538269,
        -0.9999722242355347,
        -0.9999431371688843
      ],
      "type": "VEC3"
    },
    {
      "bufferView": 1,
      "byteOffset": 6815336,
      "componentType": 5126,
      "count": 65532,
      "max": [
        0.9997010231018066,
        0.954833984375
      ],
      "min": [
        0.00024399999529123306,
        0.0002789999998640269
      ],
      "type": "VEC2"
    },
    {
      "bufferView": 0,
      "byteOffset": 12390936,
      "componentType": 5125,
      "count": 193503,
      "type": "SCALAR"
    },
    {
      "bufferView": 2,
      "byteOffset": 22018776,
      "componentType": 5126,
      "count": 65534,
      "max": [
        0.3088870048522949,
        -7.207033157348633,
        1.4346359968185425
      ],
      "min": [
        -22.09722137451172,
        -27.258106231689453,
        -21.721452713012695
      ],
      "type": "VEC3"
    },
    {
      "bufferView": 2,
      "byteOffset": 22805184,
      "componentType": 5126,
      "count": 65534,
      "max": [
        0.9998481869697571,
        0.9992024898529053,
        0.9999702572822571
      ],
      "min": [
        -0.9999879598617554,
        -0.9999947547912598,
        -0.9999979138374329
      ],
      "type": "VEC3"
    },
    {
      "bufferView": 1,
      "byteOffset": 7339592,
      "componentType": 5126,
      "count": 65534,
      "max": [
        0.9996749758720398,
        0.9528809785842896
      ],
      "min": [
        0.00024399999529123306,
        0.0006820000126026571
      ],
      "type": "VEC2"
    },
    {
      "bufferView": 0,
      "byteOffset": 13164948,
      "componentType": 5125,
      "count": 210135,
      "type": "SCALAR"
    },
    {
      "bufferView": 2,
      "byteOffset": 23591592,
      "componentType": 5126,
      "count": 65534,
      "max": [
        38.7651252746582,
        -7.207033157348633,
        38.7651252746582
      ],
      "min": [
        -38.7651252746582,
        -35.92735290527344,
        -38.7651252746582
      ],
      "type": "VEC3"
    },
    {
      "bufferView": 2,
      "byteOffset": 24378000,
      "componentType": 5126,
      "count": 65534,
      "max": [
        0.9999886155128479,
        0.9999889135360718,
        0.9999862909317017
      ],
      "min": [
        -0.9999937415122986,
        -1.0,
        -0.999978244304657
      ],
      "type": "VEC3"
    },
    {
      "bufferView": 1,
      "byteOffset": 7863864,
      "componentType": 5126,
      "count": 65534,
      "max": [
        0.9997529983520508,
        0.955810010433197
      ],
      "min": [
        0.00024399999529123306,
        0.0002519999979995191
      ],
      "type": "VEC2"
    },
    {
      "bufferView": 0,
      "byteOffset": 14005488,
      "componentType": 5125,
      "count": 194037,
      "type": "SCALAR"
    },
    {
      "bufferView": 2,
      "byteOffset": 25164408,
      "componentType": 5126,
      "count": 65532,
      "max": [
        21.721220016479492,
        -7.207033157348633,
        2.495690107345581
      ],
      "min": [
        -21.746814727783203,
        -31.70027732849121,
        -21.67160415649414
      ],
      "type": "VEC3"
    },
    {
      "bufferView": 2,
      "byteOffset": 25950792,
      "componentType": 5126,
      "count": 65532,
      "max": [
        0.9998725652694702,
        0.999629020690918,
        0.999979555606842
      ],
      "min": [
        -0.9999510645866394,
        -0.9999978542327881,
        -0.9999476075172424
      ],
      "type": "VEC3"
    },
    {
      "bufferView": 1,
      "byteOffset": 8388136,
      "componentType": 5126,
      "count": 65532,
      "max": [
        0.9997509717941284,
        0.954833984375
      ],
      "min": [
        0.00024399999529123306,
        0.0002789999998640269
      ],
      "type": "VEC2"
    },
    {
      "bufferView": 0,
      "byteOffset": 14781636,
      "componentType": 5125,
      "count": 190002,
      "type": "SCALAR"
    },
    {
      "bufferView": 2,
      "byteOffset": 26737176,
      "componentType": 5126,
      "count": 65532,
      "max": [
        32.16770935058594,
        -7.207033157348633,
        2.9266979694366455
      ],
      "min": [
        -32.172264099121094,
        -33.87969970703125,
        -38.60590362548828
      ],
      "type": "VEC3"
    },
    {
      "bufferView": 2,
      "byteOffset": 27523560,
      "componentType": 5126,
      "count": 65532,
      "max": [
        0.999891996383667,
        0.9999224543571472,
        0.9999698400497437
      ],
      "min": [
        -0.9999489188194275,
        -1.0,
        -0.9999451637268066
      ],
      "type": "VEC3"
    },
    {
      "bufferView": 1,
      "byteOffset": 8912392,
      "componentType": 5126,
      "count": 65532,
      "max": [
        0.9997460246086121,
        0.9567869901657104
      ],
      "min": [
        0.00024399999529123306,
        0.0002479999966453761
      ],
      "type": "VEC2"
    },
    {
      "bufferView": 0,
      "byteOffset": 15541644,
      "componentType": 5125,
      "count": 178968,
      "type": "SCALAR"
    },
    {
      "bufferView": 2,
      "byteOffset": 28309944,
      "componentType": 5126,
      "count": 65532,
      "max": [
        31.970211029052734,
        -7.207033157348633,
        20.349496841430664
      ],
      "min": [
        -17.378589630126953,
        -33.800987243652344,
        -33.82398223876953
      ],
      "type": "VEC3"
    },
    {
      "bufferView": 2,
      "byteOffset": 29096328,
      "componentType": 5126,
      "count": 65532,
      "max": [
        0.9999834895133972,
        0.997639536857605,
        0.9996762275695801
      ],
      "min": [
        -0.9999911189079285,
        -0.9999749064445496,
        -0.9998891949653625
      ],
      "type": "VEC3"
    },
    {
      "bufferView": 1,
      "byteOffset": 9436648,
      "componentType": 5126,
      "count": 65532,
      "max": [
        0.9997559785842896,
        0.954833984375
      ],
      "min": [
        0.00024399999529123306,
        0.0002460000105202198
      ],
      "type": "VEC2"
    },
    {
      "bufferView": 0,
      "byteOffset": 16257516,
      "componentType": 5125,
      "count": 235635,
      "type": "SCALAR"
    },
    {
      "bufferView": 2,
      "byteOffset": 29882712,
      "componentType": 5126,
      "count": 65532,
      "max": [
        8.23927116394043,
        -7.2458720207214355,
        21.686725616455078
      ],
      "min": [
        -7.0609049797058105,
        -22.08494758605957,
        0.3031890094280243
      ],
      "type": "VEC3"
    },
    {
      "bufferView": 2,
      "byteOffset": 30669096,
      "componentType": 5126,
      "count": 65532,
      "max": [
        0.9999951720237732,
        0.9972080588340759,
        0.9999634027481079
      ],
      "min": [
        -0.9999911189079285,
        -0.9999845623970032,
        -0.999769389629364
      ],
      "type": "VEC3"
    },
    {
      "bufferView": 1,
      "byteOffset": 9960904,
      "componentType": 5126,
      "count": 65532,
      "max": [
        0.9996970295906067,
        0.9538570046424866
      ],
      "min": [
        0.00024399999529123306,
        0.00024500000290572643
      ],
      "type": "VEC2"
    },
    {
      "bufferView": 0,
      "byteOffset": 17200056,
      "componentType": 5125,
      "count": 209337,
      "type": "SCALAR"
    },
    {
      "bufferView": 2,
      "byteOffset": 31455480,
      "componentType": 5126,
      "count": 65533,
      "max": [
        21.678958892822266,
        -7.207033157348633,
        21.73714256286621
      ],
      "min": [
        -21.725852966308594,
        -22.050203323364258,
        -4.611594200134277
      ],
      "type": "VEC3"
    },
    {
      "bufferView": 2,
      "byteOffset": 32241876,
      "componentType": 5126,
      "count": 65533,
      "max": [
        0.9999915361404419,
        0.9972080588340759,
        0.9999193549156189
      ],
      "min": [
        -0.999999463558197,
        -0.9999664425849915,
        -0.9998794794082642
      ],
      "type": "VEC3"
    },
    {
      "bufferView": 1,
      "byteOffset": 10485160,
      "componentType": 5126,
      "count": 65533,
      "max": [
        0.9997559785842896,
        0.954833984375
      ],
      "min": [
        0.00024399999529123306,
        0.0002880000101868063
      ],
      "type": "VEC2"
    },
    {
      "bufferView": 0,
      "byteOffset": 18037404,
      "componentType": 5125,
      "count": 189318,
      "type": "SCALAR"
    },
    {
      "bufferView": 2,
      "byteOffset": 33028272,
      "componentType": 5126,
      "count": 65532,
      "max": [
        13.577216148376465,
        -7.207033157348633,
        21.545978546142578
      ],
      "min": [
        -21.69471549987793,
        -19.06531524658203,
        -2.8475470542907715
      ],
      "type": "VEC3"
    },
    {
      "bufferView": 2,
      "byteOffset": 33814656,
      "componentType": 5126,
      "count": 65532,
      "max": [
        0.998961329460144,
        0.998724102973938,
        0.9998500943183899
      ],
      "min": [
        -0.9999997019767761,
        -0.9999867677688599,
        -0.9999999403953552
      ],
      "type": "VEC3"
    },
    {
      "bufferView": 1,
      "byteOffset": 11009424,
      "componentType": 5126,
      "count": 65532,
      "max": [
        0.9997249841690063,
        0.955810010433197
      ],
      "min": [
        0.00024399999529123306,
        0.0002629999944474548
      ],
      "type": "VEC2"
    },
    {
      "bufferView": 0,
      "byteOffset": 18794676,
      "componentType": 5125,
      "count": 208416,
      "type": "SCALAR"
    },
    {
      "bufferView": 2,
      "byteOffset": 34601040,
      "componentType": 5126,
      "count": 47635,
      "max": [
        -5.602181911468506,
        -7.449497222900391,
        21.703777313232422
      ],
      "min": [
        -18.863672256469727,
        -19.416933059692383,
        -8.68253231048584
      ],
      "type": "VEC3"
    },
    {
      "bufferView": 2,
      "byteOffset": 35172660,
      "componentType": 5126,
      "count": 47635,
      "max": [
        0.9998893141746521,
        0.9954928755760193,
        0.99968421459198
      ],
      "min": [
        -0.9999938607215881,
        -0.9999996423721313,
        -0.9999579191207886
      ],
      "type": "VEC3"
    },
    {
      "bufferView": 1,
      "byteOffset": 11533680,
      "componentType": 5126,
      "count": 47635,
      "max": [
        0.9996880292892456,
        0.9538570046424866
      ],
      "min": [
        0.00024399999529123306,
        0.00028199999360367656
      ],
      "type": "VEC2"
    },
    {
      "bufferView": 0,
      "byteOffset": 19628340,
      "componentType": 5125,
      "count": 119547,
      "type": "SCALAR"
    }
  ],
  "asset": {
    "extras": {
      "author": "artfletch (https://sketchfab.com/artfletch)",
      "license": "CC-BY-4.0 (http://creativecommons.org/licenses/by/4.0/)",
      "source": "https://sketchfab.com/3d-models/pillbox-winchelsea-beach-nook-lake-8272998487544e648c76502a0ac17d58",
      "title": "Pillbox Winchelsea Beach Nook Lake"
    },
    "generator": "Sketchfab-13.8.0",
    "version": "2.0"
  },
  "bufferViews": [
    {
      "buffer": 0,
      "byteLength": 20106528,
      "name": "floatBufferViews",
      "target": 34963
    },
    {
      "buffer": 0,
      "byteLength": 11914760,
      "byteOffset": 20106528,
      "byteStride": 8,
      "name": "floatBufferViews",
      "target": 34962
    },
    {
      "buffer": 0,
      "byteLength": 35744280,
      "byteOffset": 32021288,
      "byteStride": 12,
      "name": "floatBufferViews",
      "target": 34962
    }
  ],
  "buffers": [
    {
      "byteLength": 67765568,
      "uri": "scene.bin"
    }
  ],
  "extensionsUsed": [
    "KHR_materials_unlit"
  ],
  "images": [
    {
      "uri": "textures/PillboxWinchelseaBeach2_01_Model_4_u1_v1_baseColor.jpeg"
    }
  ],
  "materials": [
    {
      "doubleSided": true,
      "extensions": {
        "KHR_materials_unlit": {}
      },
      "name": "PillboxWinchelseaBeach2_01_Model_4_u1_v1",
      "pbrMetallicRoughness": {
        "baseColorTexture": {
          "index": 0
        },
        "metallicFactor": 0.0
      }
    }
  ],
  "meshes": [
    {
      "name": "Object_0",
      "primitives": [
        {
          "attributes": {
            "NORMAL": 1,
            "POSITION": 0,
            "TEXCOORD_0": 2
          },
          "indices": 3,
          "material": 0,
          "mode": 4
        }
      ]
    },
    {
      "name": "Object_1",
      "primitives": [
        {
          "attributes": {
            "NORMAL": 5,
            "POSITION": 4,
            "TEXCOORD_0": 6
          },
          "indices": 7,
          "material": 0,
          "mode": 4
        }
      ]
    },
    {
      "name": "Object_2",
      "primitives": [
        {
          "attributes": {
            "NORMAL": 9,
            "POSITION": 8,
            "TEXCOORD_0": 10
          },
          "indices": 11,
          "material": 0,
          "mode": 4
        }
      ]
    },
    {
      "name": "Object_3",
      "primitives": [
        {
          "attributes": {
            "NORMAL": 13,
            "POSITION": 12,
            "TEXCOORD_0": 14
          },
          "indices": 15,
          "material": 0,
          "mode": 4
        }
      ]
    },
    {
      "name": "Object_4",
      "primitives": [
        {
          "attributes": {
            "NORMAL": 17,
            "POSITION": 16,
            "TEXCOORD_0": 18
          },
          "indices": 19,
          "material": 0,
          "mode": 4
        }
      ]
    },
    {
      "name": "Object_5",
      "primitives": [
        {
          "attributes": {
            "NORMAL": 21,
            "POSITION": 20,
            "TEXCOORD_0": 22
          },
          "indices": 23,
          "material": 0,
          "mode": 4
        }
      ]
    },
    {
      "name": "Object_6",
      "primitives": [
        {
          "attributes": {
            "NORMAL": 25,
            "POSITION": 24,
            "TEXCOORD_0": 26
          },
          "indices": 27,
          "material": 0,
          "mode": 4
        }
      ]
    },
    {
      "name": "Object_7",
      "primitives": [
        {
          "attributes": {
            "NORMAL": 29,
            "POSITION": 28,
            "TEXCOORD_0": 30
          },
          "indices": 31,
          "material": 0,
          "mode": 4
        }
      ]
    },
    {
      "name": "Object_8",
      "primitives": [
        {
          "attributes": {
            "NORMAL": 33,
            "POSITION": 32,
            "TEXCOORD_0": 34
          },
          "indices": 35,
          "material": 0,
          "mode": 4
        }
      ]
    },
    {
      "name": "Object_9",
      "primitives": [
        {
          "attributes": {
            "NORMAL": 37,
            "POSITION": 36,
            "TEXCOORD_0": 38
          },
          "indices": 39,
          "material": 0,
          "mode": 4
        }
      ]
    },
    {
      "name": "Object_10",
      "primitives": [
        {
          "attributes": {
            "NORMAL": 41,
            "POSITION": 40,
            "TEXCOORD_0": 42
          },
          "indices": 43,
          "material": 0,
          "mode": 4
        }
      ]
    },
    {
      "name": "Object_11",
      "primitives": [
        {
          "attributes": {
            "NORMAL": 45,
            "POSITION": 44,
            "TEXCOORD_0": 46
          },
          "indices": 47,
          "material": 0,
          "mode": 4
        }
      ]
    },
    {
      "name": "Object_12",
      "primitives": [
        {
          "attributes": {
            "NORMAL": 49,
            "POSITION": 48,
            "TEXCOORD_0": 50
          },
          "indices": 51,
          "material": 0,
          "mode": 4
        }
      ]
    },
    {
      "name": "Object_13",
      "primitives": [
        {
          "attributes": {
            "NORMAL": 53,
            "POSITION": 52,
            "TEXCOORD_0": 54
          },
          "indices": 55,
          "material": 0,
          "mode": 4
        }
      ]
    },
    {
      "name": "Object_14",
      "primitives": [
        {
          "attributes": {
            "NORMAL": 57,
            "POSITION": 56,
            "TEXCOORD_0": 58
          },
          "indices": 59,
          "material": 0,
          "mode": 4
        }
      ]
    },
    {
      "name": "Object_15",
      "primitives": [
        {
          "attributes": {
            "NORMAL": 61,
            "POSITION": 60,
            "TEXCOORD_0": 62
          },
          "indices": 63,
          "material": 0,
          "mode": 4
        }
      ]
    },
    {
      "name": "Object_16",
      "primitives": [
        {
          "attributes": {
            "NORMAL": 65,
            "POSITION": 64,
            "TEXCOORD_0": 66
          },
          "indices": 67,
          "material": 0,
          "mode": 4
        }
      ]
    },
    {
      "name": "Object_17",
      "primitives": [
        {
          "attributes": {
            "NORMAL": 69,
            "POSITION": 68,
            "TEXCOORD_0": 70
          },
          "indices": 71,
          "material": 0,
          "mode": 4
        }
      ]
    },
    {
      "name": "Object_18",
      "primitives": [
        {
          "attributes": {
            "NORMAL": 73,
            "POSITION": 72,
            "TEXCOORD_0": 74
          },
          "indices": 75,
          "material": 0,
          "mode": 4
        }
      ]
    },
    {
      "name": "Object_19",
      "primitives": [
        {
          "attributes": {
            "NORMAL": 77,
            "POSITION": 76,
            "TEXCOORD_0": 78
          },
          "indices": 79,
          "material": 0,
          "mode": 4
        }
      ]
    },
    {
      "name": "Object_20",
      "primitives": [
        {
          "attributes": {
            "NORMAL": 81,
            "POSITION": 80,
            "TEXCOORD_0": 82
          },
          "indices": 83,
          "material": 0,
          "mode": 4
        }
      ]
    },
    {
      "name": "Object_21",
      "primitives": [
        {
          "attributes": {
            "NORMAL": 85,
            "POSITION": 84,
            "TEXCOORD_0": 86
          },
          "indices": 87,
          "material": 0,
          "mode": 4
        }
      ]
    },
    {
      "name": "Object_22",
      "primitives": [
        {
          "attributes": {
            "NORMAL": 89,
            "POSITION": 88,
            "TEXCOORD_0": 90
          },
          "indices": 91,
          "material": 0,
          "mode": 4
        }
      ]
    }
  ],
  "nodes": [
    {
      "children": [
        1
      ],
      "matrix": [
        1.0,
        0.0,
        0.0,
        0.0,
        0.0,
        -1.0,
        -2.220446049250313e-16,
        0.0,
        0.0,
        2.220446049250313e-16,
        -1.0,
        0.0,
        0.0,
        0.0,
        0.0,
        1.0
      ],
      "name": "Sketchfab_model"
    },
    {
      "children": [
        2,
        3,
        4,
        5,
        6,
        7,
        8,
        9,
        10,
        11,
        12,
        13,
        14,
        15,
        16,
        17,
        18,
        19,
        20,
        21,
        22,
        23,
        24
      ],
      "name": "PillboxWinchelseaBeach2_03.obj.cleaner.materialmerger.gles"
    },
    {
      "mesh": 0,
      "name": "Object_2"
    },
    {
      "mesh": 1,
      "name": "Object_3"
    },
    {
      "mesh": 2,
      "name": "Object_4"
    },
    {
      "mesh": 3,
      "name": "Object_5"
    },
    {
      "mesh": 4,
      "name": "Object_6"
    },
    {
      "mesh": 5,
      "name": "Object_7"
    },
    {
      "mesh": 6,
      "name": "Object_8"
    },
    {
      "mesh": 7,
      "name": "Object_9"
    },
    {
      "mesh": 8,
      "name": "Object_10"
    },
    {
      "mesh": 9,
      "name": "Object_11"
    },
    {
      "mesh": 10,
      "name": "Object_12"
    },
    {
      "mesh": 11,
      "name": "Object_13"
    },
    {
      "mesh": 12,
      "name": "Object_14"
    },
    {
      "mesh": 13,
      "name": "Object_15"
    },
    {
      "mesh": 14,
      "name": "Object_16"
    },
    {
      "mesh": 15,
      "name": "Object_17"
    },
    {
      "mesh": 16,
      "name": "Object_18"
    },
    {
      "mesh": 17,
      "name": "Object_19"
    },
    {
      "mesh": 18,
      "name": "Object_20"
    },
    {
      "mesh": 19,
      "name": "Object_21"
    },
    {
      "mesh": 20,
      "name": "Object_22"
    },
    {
      "mesh": 21,
      "name": "Object_23"
    },
    {
      "mesh": 22,
      "name": "Object_24"
    }
  ],
  "samplers": [
    {
      "magFilter": 9729,
      "minFilter": 9987,
      "wrapS": 10497,
      "wrapT": 10497
    }
  ],
  "scene": 0,
  "scenes": [
    {
      "name": "Sketchfab_Scene",
      "nodes": [
        0
      ]
    }
  ],
  "textures": [
    {
      "sampler": 0,
      "source": 0
    }
  ]
}
